<?xml version="1.0" encoding="UTF-8" standalone="no"?>
<!DOCTYPE svg PUBLIC "-//W3C//DTD SVG 1.1//EN" "http://www.w3.org/Graphics/SVG/1.1/DTD/svg11.dtd">
<svg width="100%" height="100%" viewBox="0 0 2500 2500" version="1.1" xmlns="http://www.w3.org/2000/svg" xmlns:xlink="http://www.w3.org/1999/xlink" xml:space="preserve" xmlns:serif="http://www.serif.com/" style="fill-rule:evenodd;clip-rule:evenodd;stroke-linejoin:round;stroke-miterlimit:2;">
    <g transform="matrix(1.330865,0,0,1.330865,-357.235929,-476.394275)">
        <g id="Light">
            <path d="M1822,1210C1756.243,1209.208 1503.487,1203.707 1487,1205C1460.463,1207.081 1437.388,1205.244 1407,1099C1349.821,899.09 1002.078,927.785 1000,1153C998.85,1277.57 995.876,1882.972 998,1970C999.168,2017.837 1422.553,2023.719 1422,1987C1420.096,1860.509 1423.886,1584.804 1423,1559C1421.152,1505.219 1434.457,1484.657 1493,1484C1559.773,1483.25 1761.787,1480.081 1816,1481C1926.469,1482.873 1932.337,1540.581 1926.895,1600C1866.233,1822.218 1749.384,2141.397 1250,2140.439C658.233,2139.304 477.491,1709.073 487.445,1250C496.746,821.019 751.051,458.452 1188,454C1678.605,449.001 1892.054,844.889 1912,1001C1944.489,1158.172 1927.836,1211.274 1822,1210ZM1527,1082L1802,1085C1797.503,897.804 1593.784,568.088 1176,576C817.166,582.796 607.278,886.284 603,1262C599.779,1544.853 648.34,1746.78 873,1905C887.801,1915.424 874.787,1406.578 881,1134C887.299,857.682 1361.766,671.561 1527,1082ZM1542,1944C1691.701,1875.919 1781.423,1762.037 1802,1603L1542,1603L1542,1944Z" style="fill:rgb(51,65,85);"/>
        </g>
    </g>
</svg>
